Coordinates
version=1
nRows=13
nColumns=36
inDegrees=yes

Units are S.I. units (second, meters, Newtons, ...)
If the header above contains a line with 'inDegrees', this indicates whether rotational values are in degrees (yes) or radians (no).

endheader
time	pelvis_tilt	pelvis_list	pelvis_rotation	pelvis_tx	pelvis_ty	pelvis_tz	hip_flexion_r	hip_adduction_r	hip_rotation_r	knee_angle_r	knee_angle_r_beta	ankle_angle_r	subtalar_angle_r	mtp_angle_r	hip_flexion_l	hip_adduction_l	hip_rotation_l	knee_angle_l	knee_angle_l_beta	ankle_angle_l	subtalar_angle_l	mtp_angle_l	lumbar_extension	lumbar_bending	lumbar_rotation	arm_flex_r	arm_add_r	arm_rot_r	elbow_flex_r	pro_sup_r	arm_flex_l	arm_add_l	arm_rot_l	elbow_flex_l	pro_sup_l
      1.93750000	    -29.22074194	      1.01229740	     -0.86739800	      0.15151988	      0.66607990	     -0.08977742	     83.73746778	    -12.34408864	     -4.56577511	     82.56454742	      1.44102320	     27.99077439	      4.53214487	     -7.49999987	     85.58335369	    -12.28927068	     -3.20238570	     82.20675532	      1.43477855	     23.10527730	      0.91505212	     -7.49999987	    -21.93977067	     -1.89138834	     -2.46522927	     83.26466647	    -22.71819094	     24.59934043	     93.25093979	     88.70525059	     90.85633463	    -11.54311077	     28.82790286	     96.37650416	     70.00166703
      1.94166670	    -29.09248633	      0.80599767	     -0.87109643	      0.14748786	      0.66926519	     -0.08573012	     83.20968256	    -12.22648099	     -4.68588735	     82.09102775	      1.43275872	     27.79917847	      4.81239309	     -7.49999987	     85.24066854	    -12.19932886	     -2.93118643	     81.72645042	      1.42639565	     23.10707169	      0.85755247	     -7.49999987	    -21.67890071	     -1.71308772	     -2.41493123	     82.96328180	    -23.71110206	     24.53491356	     93.85675195	     88.80983747	     90.70879603	    -12.47127828	     28.96414330	     96.51976762	     70.11864952
      1.94583330	    -28.98462109	      0.58578165	     -0.71639320	      0.14752513	      0.67341527	     -0.08631172	     82.70511282	    -12.24775429	     -4.90651314	     81.65546665	      1.42515675	     27.66370084	      5.08720889	     -7.49999987	     84.98737022	    -12.00331547	     -2.69903093	     81.27698188	      1.41855094	     22.89143776	      0.78874041	     -7.49999987	    -21.39142488	     -1.37312392	     -2.33361415	     83.07441949	    -24.65497417	     24.76823725	     94.64498686	     88.37178727	     90.49726676	    -13.14272446	     29.34085433	     96.77312032	     70.04906991
      1.95000000	    -28.85988829	      0.44628949	     -0.65754028	      0.14797535	      0.67985049	     -0.08677090	     81.83681285	    -12.02189277	     -5.02800173	     80.63857880	      1.40740870	     27.16079528	      4.90560296	     -7.49999987	     84.25633556	    -11.89238037	     -2.71835313	     80.24787202	      1.40058958	     22.37088501	      0.56951551	     -7.49999987	    -21.15989925	     -1.16824714	     -2.26451654	     83.29451048	    -25.35593199	     25.18606945	     94.28535611	     86.99652000	     90.20028965	    -13.21788745	     29.50240322	     95.99153860	     69.36835793
      1.95416670	    -28.60475295	      0.22503427	     -0.72853839	      0.14831880	      0.68054074	     -0.08690248	     81.01939433	    -11.77665312	     -5.27356945	     79.75022047	      1.39190393	     27.05563919	      4.83108172	     -7.49999987	     83.65482711	    -11.89239114	     -2.54119042	     79.60748283	      1.38941268	     22.15223053	      0.41800109	     -7.49999987	    -21.00737808	     -0.82477465	     -1.56820341	     83.98733450	    -27.22510428	     26.87088496	     94.82317744	     87.42217954	     89.11432163	    -12.97831692	     28.79472440	     96.00793027	     70.02319759
      1.95833330	    -28.46766442	      0.24084931	     -0.73979269	      0.15232243	      0.68106612	     -0.09179779	     80.42444133	    -11.90740749	     -5.23290549	     79.31508959	      1.38430946	     26.89642588	      4.96941671	     -7.49999987	     83.16006492	    -11.68840374	     -2.62549872	     79.28490908	      1.38378271	     22.30078916	      0.35269538	     -7.49999987	    -20.57109387	     -0.73128438	     -1.43478351	     83.74785553	    -27.87045975	     26.90706540	     94.72346534	     87.45794542	     88.17523419	    -13.29127782	     28.80672279	     96.10225470	     70.06417820
      1.96250000	    -28.48295385	      0.18304979	     -0.73369223	      0.15267406	      0.68775889	     -0.09190882	     79.83362081	    -11.97710771	     -5.29457539	     78.46535349	      1.36947877	     26.68652268	      4.95942425	     -7.49999987	     82.61815620	    -11.48271858	     -2.66549198	     78.69497212	      1.37348637	     22.04128091	     -0.19039423	     -7.49999987	    -20.06258743	     -0.41040996	     -1.05249724	     83.14852446	    -28.98401264	     27.78457588	     95.09166845	     87.73827081	     85.95688637	    -12.79721329	     26.86129244	     97.29384444	     70.29614378
      1.96666670	    -28.37136360	      0.12537198	     -0.71846825	      0.15674832	      0.68821858	     -0.09669397	     79.21904163	    -12.29884590	     -5.36382500	     78.05741812	      1.36235895	     26.66127407	      5.28810769	     -7.49999987	     82.08530101	    -11.15684019	     -2.65218328	     78.53806448	      1.37074781	     22.20639656	     -0.42461409	     -7.49999987	    -19.59205383	      0.01700878	     -1.05650625	     82.17906634	    -29.95528066	     27.74593182	     95.58163548	     87.71266803	     84.44963948	    -12.71169384	     25.84253212	     98.44290920	     70.34766170
      1.97083330	    -28.25360709	      0.08418760	     -0.52839119	      0.15673871	      0.69183604	     -0.09636873	     78.36829138	    -12.67286740	     -5.53816050	     77.37076738	      1.35037464	     26.73602918	      5.90863623	     -7.49999987	     81.42374838	    -10.78176148	     -2.73338577	     77.94179953	      1.36034103	     22.19895811	     -0.66041752	     -7.49999987	    -19.19732319	      0.30150427	     -1.24845868	     80.89986272	    -30.82948706	     27.45222453	     96.42641567	     87.68885891	     83.14989470	    -12.66561006	     24.82247308	     99.46448937	     70.34497923
      1.97500000	    -28.09462633	      0.23204052	     -0.41395059	      0.15665879	      0.69518186	     -0.09578054	     77.84665922	    -12.89234949	     -5.49303447	     76.91330751	      1.34239045	     26.61473681	      6.01330184	     -7.49999987	     80.72117609	    -10.43015258	     -2.93362470	     77.31116334	      1.34933435	     22.02241009	     -1.01246602	     -7.49999987	    -18.85193895	      0.37625235	     -1.25128139	     80.19545820	    -31.60207306	     27.30150719	     96.97963371	     87.57189994	     82.38997304	    -12.57278316	     23.99634423	     99.99919782	     70.32932063
      1.97916670	    -27.93381831	      0.35694304	     -0.24167483	      0.15724491	      0.70194099	     -0.09580441	     77.13206391	    -13.06246816	     -5.59255000	     76.10300439	      1.32824800	     26.38242197	      6.31035349	     -7.49999987	     79.90394443	    -10.02378156	     -3.14779611	     76.32838145	      1.33218157	     21.56503451	     -1.43338143	     -7.49999987	    -18.64072867	      0.37004970	     -1.26741054	     79.54344827	    -32.05012842	     27.14439860	     97.22171076	     87.03119355	     81.60875289	    -12.44022466	     23.25607581	    100.18099273	     70.12459845
      1.98333330	    -27.62058348	      0.51817888	     -0.24970646	      0.15783595	      0.70820035	     -0.09476276	     76.20490814	    -12.94711488	     -5.64229478	     74.89660425	      1.30719234	     26.05888431	      6.62885108	     -7.49999987	     78.67938265	     -9.85998735	     -3.40682029	     75.02549307	      1.30944188	     21.11480390	     -1.51150376	     -7.49999987	    -18.57285357	      0.22034732	     -1.14867063	     78.86837208	    -32.33051661	     26.82191260	     97.33477284	     86.45202725	     80.76324835	    -12.81192005	     23.26665896	    100.28395676	     69.88538338
      1.98750000	    -27.24302599	      0.55320904	     -0.28036286	      0.15858477	      0.71189605	     -0.09523110	     75.23884564	    -12.88261338	     -5.82315104	     73.95334851	      1.29072942	     25.69612977	      6.41341821	     -7.49999987	     77.59230495	     -9.76004993	     -3.42084816	     73.97989599	      1.29119277	     20.76291751	     -1.78843705	     -7.49999987	    -18.49673650	      0.17775347	     -1.04518144	     78.28114559	    -32.89620714	     26.80564257	     97.21123913	     85.88167099	     79.87312349	    -13.24365449	     23.58993991	     99.84982076	     69.58116955
